<svg xmlns="http://www.w3.org/2000/svg" viewBox="0 0 2000 820" class="schematic">
  <!--
    Rimkų g. st. — realistic through-station track ladder.
    West (left) = Vilkyčiai / Draugystė, East (right) = Klaipėda.
    Two switch throats (WEST x180–560, EAST x1240–1860) frame a straight
    platform section in the middle. 33 switches (authoritative list from the
    real track plan) and ~18 track circuits (PARTIAL, read from plan photos).
    Switch / track-circuit POSITIONS are approximate, not surveyed — they only
    need to read as a real throat and not overlap. Each interactive element is a
    <g data-element-id> with a transparent ≥48px hit rect.
  -->

  <!-- direction + station labels -->
  <text class="dir" x="24" y="44" text-anchor="start">&#8592; VILKYČIAI / DRAUGYSTĖ</text>
  <text class="dir" x="1976" y="44" text-anchor="end">KLAIPĖDA &#8594;</text>
  <text class="title" x="1000" y="44" text-anchor="middle">RIMKŲ g. st.</text>

  <!-- siding / track labels (left) -->
  <text class="siding" x="24" y="116">UAB „Geležies laužas“</text>
  <text class="siding" x="24" y="584">UAB „Klaipėdos energija“ / AB „Gelsta“</text>
  <text class="siding" x="24" y="634">AB „Klaipėdos keliai“</text>

  <!-- ===== background tracks ===== -->
  <g class="tracks" fill="none" stroke="#94a3b8" stroke-width="3">
    <!-- through / yard tracks (full length) -->
    <polyline points="300,120 1100,120" />
    <polyline points="60,180 1940,180" />
    <polyline points="60,220 1940,220" />
    <polyline points="60,260 1940,260" />
    <polyline points="40,330 1960,330" stroke="#cbd5e1" stroke-width="5" />
    <polyline points="40,385 1960,385" stroke="#cbd5e1" stroke-width="5" />
    <polyline points="60,440 1940,440" />
    <polyline points="100,500 1840,500" />
    <polyline points="500,580 1700,580" />
    <polyline points="1100,630 1840,630" />

    <!-- track names (right of left margin, on each line) -->
    <g fill="#64748b" stroke="none" font="600 13px system-ui">
      <text x="120" y="176">10K</text>
      <text x="120" y="216">8K</text>
      <text x="120" y="256">6K</text>
      <text x="120" y="324" font="700 14px system-ui">IK</text>
      <text x="120" y="379" font="700 14px system-ui">IIK</text>
      <text x="120" y="434">IIIK</text>
      <text x="160" y="494">4K</text>
    </g>

    <!-- decorative throat connectors (ladder feel) -->
    <g stroke="#94a3b8" stroke-width="3">
      <!-- WEST throat -->
      <line x1="200" y1="330" x2="280" y2="260" />
      <line x1="300" y1="260" x2="360" y2="180" />
      <line x1="300" y1="220" x2="360" y2="180" />
      <line x1="260" y1="330" x2="320" y2="385" />
      <line x1="360" y1="385" x2="420" y2="440" />
      <line x1="440" y1="440" x2="500" y2="500" />
      <line x1="380" y1="330" x2="440" y2="385" />
      <line x1="240" y1="500" x2="300" y2="440" />
      <line x1="320" y1="120" x2="380" y2="180" />
      <!-- EAST throat -->
      <line x1="1320" y1="330" x2="1380" y2="260" />
      <line x1="1380" y1="260" x2="1460" y2="220" />
      <line x1="1460" y1="220" x2="1540" y2="180" />
      <line x1="1300" y1="440" x2="1380" y2="500" />
      <line x1="1460" y1="385" x2="1540" y2="440" />
      <line x1="1620" y1="330" x2="1700" y2="385" />
      <line x1="1540" y1="580" x2="1620" y2="500" />
      <line x1="1700" y1="500" x2="1760" y2="440" />
      <line x1="1780" y1="330" x2="1840" y2="385" />
      <line x1="1620" y1="580" x2="1700" y2="630" />
    </g>
  </g>

  <!-- ===== switches (iešmai) — 33 total ===== -->
  <g class="switches">
    <!-- WEST throat (13): 2K 4 6K 8K 10K 12K 14K 16 18 20K 22 24 26 -->
    <g data-element-id="sw-2K" data-element-number="2K">
      <circle class="node" cx="220" cy="330" r="9" />
      <rect class="hit" x="194" y="304" width="52" height="52" />
      <text class="lbl" x="220" y="316" text-anchor="middle">2K</text>
    </g>
    <g data-element-id="sw-4" data-element-number="4">
      <circle class="node" cx="260" cy="500" r="9" />
      <rect class="hit" x="234" y="474" width="52" height="52" />
      <text class="lbl" x="260" y="486" text-anchor="middle">4</text>
    </g>
    <g data-element-id="sw-6K" data-element-number="6K">
      <circle class="node" cx="300" cy="260" r="9" />
      <rect class="hit" x="274" y="234" width="52" height="52" />
      <text class="lbl" x="300" y="246" text-anchor="middle">6K</text>
    </g>
    <g data-element-id="sw-8K" data-element-number="8K">
      <circle class="node" cx="300" cy="220" r="9" />
      <rect class="hit" x="274" y="194" width="52" height="52" />
      <text class="lbl" x="300" y="206" text-anchor="middle">8K</text>
    </g>
    <g data-element-id="sw-10K" data-element-number="10K">
      <circle class="node" cx="300" cy="180" r="9" />
      <rect class="hit" x="274" y="154" width="52" height="52" />
      <text class="lbl" x="300" y="166" text-anchor="middle">10K</text>
    </g>
    <g data-element-id="sw-12K" data-element-number="12K">
      <circle class="node" cx="360" cy="260" r="9" />
      <rect class="hit" x="334" y="234" width="52" height="52" />
      <text class="lbl" x="360" y="246" text-anchor="middle">12K</text>
    </g>
    <g data-element-id="sw-14K" data-element-number="14K">
      <circle class="node" cx="360" cy="385" r="9" />
      <rect class="hit" x="334" y="359" width="52" height="52" />
      <text class="lbl" x="360" y="371" text-anchor="middle">14K</text>
    </g>
    <g data-element-id="sw-16" data-element-number="16">
      <circle class="node" cx="400" cy="330" r="9" />
      <rect class="hit" x="374" y="304" width="52" height="52" />
      <text class="lbl" x="400" y="316" text-anchor="middle">16</text>
    </g>
    <g data-element-id="sw-18" data-element-number="18">
      <circle class="node" cx="440" cy="385" r="9" />
      <rect class="hit" x="414" y="359" width="52" height="52" />
      <text class="lbl" x="440" y="371" text-anchor="middle">18</text>
    </g>
    <g data-element-id="sw-20K" data-element-number="20K">
      <circle class="node" cx="470" cy="440" r="9" />
      <rect class="hit" x="444" y="414" width="52" height="52" />
      <text class="lbl" x="470" y="426" text-anchor="middle">20K</text>
    </g>
    <g data-element-id="sw-22" data-element-number="22">
      <circle class="node" cx="480" cy="500" r="9" />
      <rect class="hit" x="454" y="474" width="52" height="52" />
      <text class="lbl" x="480" y="486" text-anchor="middle">22</text>
    </g>
    <g data-element-id="sw-24" data-element-number="24">
      <circle class="node" cx="530" cy="440" r="9" />
      <rect class="hit" x="504" y="414" width="52" height="52" />
      <text class="lbl" x="530" y="426" text-anchor="middle">24</text>
    </g>
    <g data-element-id="sw-26" data-element-number="26">
      <circle class="node" cx="560" cy="500" r="9" />
      <rect class="hit" x="534" y="474" width="52" height="52" />
      <text class="lbl" x="560" y="486" text-anchor="middle">26</text>
    </g>

    <!-- EAST throat (20): 1K 3K 5K 7K 9 11K 13K 15K 17 19 21 23K 25 27K 29 35 37 39 43 45 -->
    <g data-element-id="sw-1K" data-element-number="1K">
      <circle class="node" cx="1300" cy="330" r="9" />
      <rect class="hit" x="1274" y="304" width="52" height="52" />
      <text class="lbl" x="1300" y="316" text-anchor="middle">1K</text>
    </g>
    <g data-element-id="sw-3K" data-element-number="3K">
      <circle class="node" cx="1380" cy="330" r="9" />
      <rect class="hit" x="1354" y="304" width="52" height="52" />
      <text class="lbl" x="1380" y="316" text-anchor="middle">3K</text>
    </g>
    <g data-element-id="sw-5K" data-element-number="5K">
      <circle class="node" cx="1460" cy="385" r="9" />
      <rect class="hit" x="1434" y="359" width="52" height="52" />
      <text class="lbl" x="1460" y="371" text-anchor="middle">5K</text>
    </g>
    <g data-element-id="sw-7K" data-element-number="7K">
      <circle class="node" cx="1540" cy="385" r="9" />
      <rect class="hit" x="1514" y="359" width="52" height="52" />
      <text class="lbl" x="1540" y="371" text-anchor="middle">7K</text>
    </g>
    <g data-element-id="sw-9" data-element-number="9">
      <circle class="node" cx="1300" cy="440" r="9" />
      <rect class="hit" x="1274" y="414" width="52" height="52" />
      <text class="lbl" x="1300" y="426" text-anchor="middle">9</text>
    </g>
    <g data-element-id="sw-11K" data-element-number="11K">
      <circle class="node" cx="1380" cy="260" r="9" />
      <rect class="hit" x="1354" y="234" width="52" height="52" />
      <text class="lbl" x="1380" y="246" text-anchor="middle">11K</text>
    </g>
    <g data-element-id="sw-13K" data-element-number="13K">
      <circle class="node" cx="1460" cy="220" r="9" />
      <rect class="hit" x="1434" y="194" width="52" height="52" />
      <text class="lbl" x="1460" y="206" text-anchor="middle">13K</text>
    </g>
    <g data-element-id="sw-15K" data-element-number="15K">
      <circle class="node" cx="1540" cy="180" r="9" />
      <rect class="hit" x="1514" y="154" width="52" height="52" />
      <text class="lbl" x="1540" y="166" text-anchor="middle">15K</text>
    </g>
    <g data-element-id="sw-17" data-element-number="17">
      <circle class="node" cx="1620" cy="330" r="9" />
      <rect class="hit" x="1594" y="304" width="52" height="52" />
      <text class="lbl" x="1620" y="316" text-anchor="middle">17</text>
    </g>
    <g data-element-id="sw-19" data-element-number="19">
      <circle class="node" cx="1620" cy="440" r="9" />
      <rect class="hit" x="1594" y="414" width="52" height="52" />
      <text class="lbl" x="1620" y="426" text-anchor="middle">19</text>
    </g>
    <g data-element-id="sw-21" data-element-number="21">
      <circle class="node" cx="1700" cy="500" r="9" />
      <rect class="hit" x="1674" y="474" width="52" height="52" />
      <text class="lbl" x="1700" y="486" text-anchor="middle">21</text>
    </g>
    <g data-element-id="sw-23K" data-element-number="23K">
      <circle class="node" cx="1380" cy="440" r="9" />
      <rect class="hit" x="1354" y="414" width="52" height="52" />
      <text class="lbl" x="1380" y="426" text-anchor="middle">23K</text>
    </g>
    <g data-element-id="sw-25" data-element-number="25">
      <circle class="node" cx="1460" cy="500" r="9" />
      <rect class="hit" x="1434" y="474" width="52" height="52" />
      <text class="lbl" x="1460" y="486" text-anchor="middle">25</text>
    </g>
    <g data-element-id="sw-27K" data-element-number="27K">
      <circle class="node" cx="1620" cy="385" r="9" />
      <rect class="hit" x="1594" y="359" width="52" height="52" />
      <text class="lbl" x="1620" y="371" text-anchor="middle">27K</text>
    </g>
    <g data-element-id="sw-29" data-element-number="29">
      <circle class="node" cx="1700" cy="385" r="9" />
      <rect class="hit" x="1674" y="359" width="52" height="52" />
      <text class="lbl" x="1700" y="371" text-anchor="middle">29</text>
    </g>
    <g data-element-id="sw-35" data-element-number="35">
      <circle class="node" cx="1700" cy="330" r="9" />
      <rect class="hit" x="1674" y="304" width="52" height="52" />
      <text class="lbl" x="1700" y="316" text-anchor="middle">35</text>
    </g>
    <g data-element-id="sw-37" data-element-number="37">
      <circle class="node" cx="1780" cy="330" r="9" />
      <rect class="hit" x="1754" y="304" width="52" height="52" />
      <text class="lbl" x="1780" y="316" text-anchor="middle">37</text>
    </g>
    <g data-element-id="sw-39" data-element-number="39">
      <circle class="node" cx="1780" cy="385" r="9" />
      <rect class="hit" x="1754" y="359" width="52" height="52" />
      <text class="lbl" x="1780" y="371" text-anchor="middle">39</text>
    </g>
    <g data-element-id="sw-43" data-element-number="43">
      <circle class="node" cx="1540" cy="580" r="9" />
      <rect class="hit" x="1514" y="554" width="52" height="52" />
      <text class="lbl" x="1540" y="566" text-anchor="middle">43</text>
    </g>
    <g data-element-id="sw-45" data-element-number="45">
      <circle class="node" cx="1620" cy="580" r="9" />
      <rect class="hit" x="1594" y="554" width="52" height="52" />
      <text class="lbl" x="1620" y="566" text-anchor="middle">45</text>
    </g>
  </g>

  <!-- ===== track circuits (bėgių grandinės) — ~18, PARTIAL =====
    Drawn as labeled track SEGMENTS sitting ON the through/yard lines, spread
    west→east. Positions are APPROXIMATE and may overlap the track polylines.
    Each has a relay end ("+") and a power-supply / feed end ("●").
  -->
  <g class="track-circuits">
    <!-- IK (y=330) -->
    <g data-element-id="tc-ČPP" data-element-number="ČPP">
      <line class="tc-seg" x1="80" y1="330" x2="240" y2="330" />
      <rect class="hit" x="60" y="304" width="200" height="52" />
      <text class="tc-lbl" x="160" y="320" text-anchor="middle">ČPP</text>
      <text class="tc-plus" x="76" y="336" text-anchor="middle">+</text>
      <text class="tc-dot" x="244" y="336" text-anchor="middle">●</text>
    </g>
    <g data-element-id="tc-1-3" data-element-number="1-3">
      <line class="tc-seg" x1="600" y1="330" x2="760" y2="330" />
      <rect class="hit" x="580" y="304" width="200" height="52" />
      <text class="tc-lbl" x="680" y="320" text-anchor="middle">1-3</text>
      <text class="tc-plus" x="596" y="336" text-anchor="middle">+</text>
      <text class="tc-dot" x="764" y="336" text-anchor="middle">●</text>
    </g>
    <g data-element-id="tc-1AK" data-element-number="1AK">
      <line class="tc-seg" x1="900" y1="330" x2="1060" y2="330" />
      <rect class="hit" x="880" y="304" width="200" height="52" />
      <text class="tc-lbl" x="980" y="320" text-anchor="middle">1AK</text>
      <text class="tc-plus" x="896" y="336" text-anchor="middle">+</text>
      <text class="tc-dot" x="1064" y="336" text-anchor="middle">●</text>
    </g>
    <g data-element-id="tc-23-25A" data-element-number="23-25A">
      <line class="tc-seg" x1="1100" y1="330" x2="1260" y2="330" />
      <rect class="hit" x="1080" y="304" width="200" height="52" />
      <text class="tc-lbl" x="1180" y="320" text-anchor="middle">23-25A</text>
      <text class="tc-plus" x="1096" y="336" text-anchor="middle">+</text>
      <text class="tc-dot" x="1264" y="336" text-anchor="middle">●</text>
    </g>
    <g data-element-id="tc-35-39A" data-element-number="35-39A">
      <line class="tc-seg" x1="1500" y1="330" x2="1660" y2="330" />
      <rect class="hit" x="1480" y="304" width="200" height="52" />
      <text class="tc-lbl" x="1580" y="320" text-anchor="middle">35-39A</text>
      <text class="tc-plus" x="1496" y="336" text-anchor="middle">+</text>
      <text class="tc-dot" x="1664" y="336" text-anchor="middle">●</text>
    </g>
    <g data-element-id="tc-ČGP" data-element-number="ČGP">
      <line class="tc-seg" x1="1760" y1="330" x2="1920" y2="330" />
      <rect class="hit" x="1740" y="304" width="200" height="52" />
      <text class="tc-lbl" x="1840" y="320" text-anchor="middle">ČGP</text>
      <text class="tc-plus" x="1756" y="336" text-anchor="middle">+</text>
      <text class="tc-dot" x="1924" y="336" text-anchor="middle">●</text>
    </g>

    <!-- IIK (y=385) -->
    <g data-element-id="tc-8-12" data-element-number="8-12">
      <line class="tc-seg" x1="280" y1="385" x2="440" y2="385" />
      <rect class="hit" x="260" y="359" width="200" height="52" />
      <text class="tc-lbl" x="360" y="375" text-anchor="middle">8-12</text>
      <text class="tc-plus" x="276" y="391" text-anchor="middle">+</text>
      <text class="tc-dot" x="444" y="391" text-anchor="middle">●</text>
    </g>
    <g data-element-id="tc-14-20" data-element-number="14-20">
      <line class="tc-seg" x1="460" y1="385" x2="620" y2="385" />
      <rect class="hit" x="440" y="359" width="200" height="52" />
      <text class="tc-lbl" x="540" y="375" text-anchor="middle">14-20</text>
      <text class="tc-plus" x="456" y="391" text-anchor="middle">+</text>
      <text class="tc-dot" x="624" y="391" text-anchor="middle">●</text>
    </g>
    <g data-element-id="tc-11-15" data-element-number="11-15">
      <line class="tc-seg" x1="760" y1="385" x2="920" y2="385" />
      <rect class="hit" x="740" y="359" width="200" height="52" />
      <text class="tc-lbl" x="840" y="375" text-anchor="middle">11-15</text>
      <text class="tc-plus" x="756" y="391" text-anchor="middle">+</text>
      <text class="tc-dot" x="924" y="391" text-anchor="middle">●</text>
    </g>
    <g data-element-id="tc-23-25B" data-element-number="23-25B">
      <line class="tc-seg" x1="1100" y1="385" x2="1260" y2="385" />
      <rect class="hit" x="1080" y="359" width="200" height="52" />
      <text class="tc-lbl" x="1180" y="375" text-anchor="middle">23-25B</text>
      <text class="tc-plus" x="1096" y="391" text-anchor="middle">+</text>
      <text class="tc-dot" x="1264" y="391" text-anchor="middle">●</text>
    </g>
    <g data-element-id="tc-27-29B" data-element-number="27-29B">
      <line class="tc-seg" x1="1300" y1="385" x2="1460" y2="385" />
      <rect class="hit" x="1280" y="359" width="200" height="52" />
      <text class="tc-lbl" x="1380" y="375" text-anchor="middle">27-29B</text>
      <text class="tc-plus" x="1296" y="391" text-anchor="middle">+</text>
      <text class="tc-dot" x="1464" y="391" text-anchor="middle">●</text>
    </g>
    <g data-element-id="tc-35-39B" data-element-number="35-39B">
      <line class="tc-seg" x1="1500" y1="385" x2="1660" y2="385" />
      <rect class="hit" x="1480" y="359" width="200" height="52" />
      <text class="tc-lbl" x="1580" y="375" text-anchor="middle">35-39B</text>
      <text class="tc-plus" x="1496" y="391" text-anchor="middle">+</text>
      <text class="tc-dot" x="1664" y="391" text-anchor="middle">●</text>
    </g>

    <!-- IIIK (y=440) -->
    <g data-element-id="tc-20-24R" data-element-number="20-24R">
      <line class="tc-seg" x1="460" y1="440" x2="620" y2="440" />
      <rect class="hit" x="440" y="414" width="200" height="52" />
      <text class="tc-lbl" x="540" y="430" text-anchor="middle">20-24R</text>
      <text class="tc-plus" x="456" y="446" text-anchor="middle">+</text>
      <text class="tc-dot" x="624" y="446" text-anchor="middle">●</text>
    </g>
    <g data-element-id="tc-9-45" data-element-number="9-45">
      <line class="tc-seg" x1="640" y1="440" x2="800" y2="440" />
      <rect class="hit" x="620" y="414" width="200" height="52" />
      <text class="tc-lbl" x="720" y="430" text-anchor="middle">9-45</text>
      <text class="tc-plus" x="636" y="446" text-anchor="middle">+</text>
      <text class="tc-dot" x="804" y="446" text-anchor="middle">●</text>
    </g>
    <g data-element-id="tc-27-29C" data-element-number="27-29C">
      <line class="tc-seg" x1="1300" y1="440" x2="1460" y2="440" />
      <rect class="hit" x="1280" y="414" width="200" height="52" />
      <text class="tc-lbl" x="1380" y="430" text-anchor="middle">27-29C</text>
      <text class="tc-plus" x="1296" y="446" text-anchor="middle">+</text>
      <text class="tc-dot" x="1464" y="446" text-anchor="middle">●</text>
    </g>

    <!-- 4K (y=500) -->
    <g data-element-id="tc-24-26" data-element-number="24-26">
      <line class="tc-seg" x1="480" y1="500" x2="640" y2="500" />
      <rect class="hit" x="460" y="474" width="200" height="52" />
      <text class="tc-lbl" x="560" y="490" text-anchor="middle">24-26</text>
      <text class="tc-plus" x="476" y="506" text-anchor="middle">+</text>
      <text class="tc-dot" x="644" y="506" text-anchor="middle">●</text>
    </g>

    <!-- yard tracks 10K (y=180) / 8K (y=220) -->
    <g data-element-id="tc-1GP" data-element-number="1GP">
      <line class="tc-seg" x1="700" y1="180" x2="860" y2="180" />
      <rect class="hit" x="680" y="154" width="200" height="52" />
      <text class="tc-lbl" x="780" y="170" text-anchor="middle">1GP</text>
      <text class="tc-plus" x="696" y="186" text-anchor="middle">+</text>
      <text class="tc-dot" x="864" y="186" text-anchor="middle">●</text>
    </g>
    <g data-element-id="tc-2GP" data-element-number="2GP">
      <line class="tc-seg" x1="900" y1="220" x2="1060" y2="220" />
      <rect class="hit" x="880" y="194" width="200" height="52" />
      <text class="tc-lbl" x="980" y="210" text-anchor="middle">2GP</text>
      <text class="tc-plus" x="896" y="226" text-anchor="middle">+</text>
      <text class="tc-dot" x="1064" y="226" text-anchor="middle">●</text>
    </g>
  </g>
</svg>
